<?xml version="1.0" encoding="iso-8859-1"?>
<!-- Generator: Adobe Illustrator 19.0.0, SVG Export Plug-In . SVG Version: 6.00 Build 0)  -->
<svg version="1.1" id="Layer_1" xmlns="http://www.w3.org/2000/svg" xmlns:xlink="http://www.w3.org/1999/xlink" x="0px" y="0px"
	 viewBox="0 0 512 512" style="enable-background:new 0 0 512 512;" xml:space="preserve">
<g>
	<path style="fill:#333333;" d="M303.629,179.73c14.254,0,25.851-11.599,25.851-25.855c0-14.257-11.597-25.855-25.851-25.855
		c-14.256,0-25.855,11.598-25.855,25.855C277.774,168.131,289.372,179.73,303.629,179.73z"/>
	<path style="fill:#333333;" d="M208.371,179.73c14.255,0,25.853-11.599,25.853-25.855c0-14.257-11.598-25.855-25.853-25.855
		c-14.256,0-25.855,11.598-25.855,25.855C182.516,168.131,194.115,179.73,208.371,179.73z"/>
</g>
<g>
	<path style="fill:#E6E6E6;" d="M155.993,197.648h27.459c3.208,0,5.81,2.601,5.81,5.81v43.832c0,8.379,8.866,9.03,11.584,9.03
		c2.718,0,11.585-0.652,11.585-9.03v-26.438c0-3.209,2.602-5.81,5.81-5.81h20.363c3.208,0,5.81,2.601,5.81,5.81v26.438
		c0,8.379,8.867,9.03,11.585,9.03c2.717,0,11.584-0.652,11.584-9.03v-26.438c0-3.209,2.602-5.81,5.81-5.81h20.362
		c3.208,0,5.81,2.601,5.81,5.81v26.438c0,8.379,8.868,9.03,11.586,9.03s11.585-0.652,11.585-9.03v-43.832
		c0-3.209,2.602-5.81,5.81-5.81h27.456c24.363,0,44.182-19.866,44.182-44.283c0-41.345-17.804-80.758-48.848-108.135
		c-14.181-12.481-50.22-33.61-95.321-33.61c-54.575,0-89.009,27.994-95.358,33.605c-31.044,27.38-48.846,66.793-48.846,108.14
		C111.813,177.782,131.633,197.648,155.993,197.648z M303.629,116.401c20.662,0,37.471,16.811,37.471,37.475
		s-16.81,37.475-37.471,37.475c-20.664,0-37.475-16.811-37.475-37.475S282.965,116.401,303.629,116.401z M208.371,116.401
		c20.663,0,37.474,16.811,37.474,37.475s-16.811,37.475-37.474,37.475c-20.664,0-37.475-16.811-37.475-37.475
		S187.707,116.401,208.371,116.401z"/>
	<path style="fill:#E6E6E6;" d="M297.54,358.609l117.607-56.353c1.572-0.753,3.399-0.761,4.979-0.021
		c1.578,0.741,2.741,2.152,3.167,3.843c0.293,1.165,0.698,2.291,1.205,3.345c3.522,7.354,11.768,11.741,22.06,11.741
		c5.664,0,11.548-1.384,17.018-4.004c7.914-3.794,14.163-9.719,17.592-16.685c3.199-6.498,3.507-13.107,0.869-18.613
		c-3.158-6.594-10.128-10.825-19.123-11.611c-2.046-0.179-3.847-1.426-4.734-3.278c-0.888-1.853-0.731-4.037,0.413-5.743
		c5.025-7.503,6.096-15.585,2.936-22.173c-3.521-7.35-11.766-11.736-22.056-11.736c-5.665,0-11.55,1.385-17.021,4.007
		c-7.914,3.792-14.163,9.716-17.592,16.682c-3.198,6.499-3.508,13.107-0.87,18.612c0.508,1.061,1.131,2.081,1.855,3.039
		c1.052,1.391,1.423,3.182,1.012,4.876c-0.411,1.695-1.563,3.115-3.135,3.868l-145.208,69.575c-1.587,0.76-3.434,0.76-5.021,0
		l-145.209-69.575c-1.572-0.752-2.723-2.172-3.134-3.865c-0.413-1.693-0.043-3.483,1.007-4.873c0.73-0.968,1.355-1.991,1.856-3.039
		c2.639-5.508,2.33-12.119-0.869-18.615c-3.43-6.967-9.678-12.892-17.592-16.682c-5.471-2.623-11.356-4.008-17.021-4.008
		c-10.291,0-18.536,4.387-22.057,11.736c-3.157,6.591-2.086,14.674,2.938,22.175c1.143,1.707,1.3,3.89,0.413,5.743
		c-0.888,1.853-2.688,3.099-4.734,3.278c-8.993,0.786-15.964,5.016-19.124,11.611c-2.638,5.503-2.329,12.114,0.87,18.613
		c3.429,6.966,9.677,12.892,17.592,16.685c5.47,2.62,11.354,4.004,17.018,4.004c10.292,0,18.539-4.387,22.06-11.736
		c0.504-1.055,0.911-2.183,1.204-3.351c0.425-1.691,1.587-3.101,3.166-3.843c1.578-0.74,3.406-0.732,4.979,0.02L214.46,358.61
		c2.016,0.966,3.299,3.004,3.299,5.239s-1.283,4.274-3.299,5.24L96.851,425.441c-1.575,0.753-3.404,0.761-4.983,0.019
		c-1.579-0.743-2.741-2.154-3.164-3.847c-0.287-1.148-0.693-2.275-1.206-3.351c-3.517-7.34-11.764-11.728-22.056-11.728
		c-5.665,0-11.549,1.384-17.019,4.005c-7.913,3.792-14.159,9.716-17.588,16.683c-3.199,6.499-3.508,13.11-0.87,18.614
		c3.158,6.594,10.127,10.824,19.121,11.608c2.047,0.179,3.847,1.426,4.735,3.277c0.888,1.853,0.731,4.038-0.413,5.744
		c-5.022,7.5-6.092,15.585-2.934,22.18c3.521,7.347,11.768,11.735,22.06,11.735c5.664,0,11.548-1.385,17.015-4.007
		c15.865-7.602,24.147-23.437,18.463-35.299c-0.511-1.063-1.136-2.087-1.855-3.035c-1.052-1.391-1.423-3.182-1.012-4.876
		c0.411-1.695,1.563-3.115,3.135-3.868l145.211-69.577c0.794-0.38,1.652-0.571,2.511-0.571c0.859,0,1.716,0.191,2.511,0.571
		l145.209,69.577c1.573,0.753,2.724,2.173,3.135,3.868c0.411,1.694,0.04,3.485-1.012,4.876c-0.718,0.948-1.343,1.972-1.858,3.044
		c-5.68,11.854,2.602,27.688,18.464,35.29c5.47,2.621,11.354,4.007,17.018,4.007c10.291,0,18.539-4.387,22.06-11.737
		c3.157-6.593,2.088-14.677-2.934-22.178c-1.142-1.708-1.299-3.892-0.411-5.744s2.689-3.098,4.735-3.277
		c8.993-0.783,15.962-5.014,19.122-11.608c5.682-11.862-2.599-27.698-18.461-35.298c-5.47-2.62-11.355-4.004-17.018-4.004
		c-10.292,0-18.537,4.387-22.058,11.736c-0.51,1.064-0.917,2.193-1.207,3.351c-0.425,1.691-1.588,3.101-3.166,3.843
		c-1.579,0.739-3.407,0.732-4.979-0.021l-117.607-56.353c-2.016-0.966-3.299-3.004-3.299-5.24S295.524,359.575,297.54,358.609z"/>
</g>
<path d="M446.558,332.786c7.39,0,15.011-1.779,22.039-5.147c10.255-4.913,18.421-12.738,22.997-22.033
	c4.806-9.763,5.133-19.98,0.921-28.765c-3.814-7.962-11.124-13.838-20.299-16.592c3.603-8.877,3.606-18.255-0.21-26.214
	c-5.418-11.31-17.886-18.335-32.535-18.335c-7.393,0-15.014,1.78-22.041,5.148c-10.255,4.912-18.421,12.736-22.997,22.03
	c-4.624,9.394-5.102,19.204-1.384,27.756l-137.047,65.665l-137.049-65.667c3.717-8.552,3.236-18.363-1.386-27.755
	c-4.576-9.295-12.744-17.119-22.995-22.029c-7.028-3.367-14.649-5.149-22.042-5.149c-14.651,0-27.118,7.025-32.536,18.335
	c-3.813,7.961-3.81,17.339-0.209,26.214c-9.172,2.754-16.483,8.631-20.298,16.591c-4.211,8.787-3.883,19.003,0.923,28.767
	c4.575,9.294,12.741,17.12,22.995,22.033c7.027,3.366,14.647,5.147,22.039,5.147c14.217,0,26.38-6.615,32.04-17.343l101.021,48.406
	L97.481,412.253c-5.659-10.725-17.822-17.342-32.04-17.342c-7.392,0-15.012,1.779-22.04,5.147
	c-10.252,4.913-18.419,12.737-22.994,22.032c-4.806,9.764-5.134,19.981-0.924,28.766c3.814,7.963,11.124,13.839,20.297,16.592
	c-3.6,8.874-3.601,18.253,0.211,26.218C45.412,504.974,57.881,512,72.531,512c7.392,0,15.012-1.78,22.037-5.149
	c21.226-10.171,31.956-32.289,24.38-49.787l137.051-65.667l137.047,65.667c-7.576,17.491,3.151,39.615,24.379,49.787
	c7.027,3.368,14.647,5.149,22.039,5.149c0.001,0,0,0,0.001,0c14.649,0,27.119-7.025,32.539-18.336
	c3.813-7.962,3.811-17.341,0.211-26.216c9.173-2.753,16.483-8.629,20.299-16.591c8.451-17.642-2.279-40.429-23.919-50.799
	c-7.028-3.366-14.648-5.145-22.039-5.145c-14.218,0-26.379,6.614-32.039,17.343l-101.024-48.406l101.024-48.407
	C420.177,326.168,432.338,332.786,446.558,332.786z M297.54,369.088l117.607,56.353c1.572,0.752,3.4,0.759,4.979,0.021
	c1.578-0.741,2.741-2.152,3.167-3.843c0.29-1.159,0.697-2.287,1.207-3.351c3.521-7.349,11.767-11.736,22.058-11.736
	c5.664,0,11.548,1.384,17.018,4.004c15.861,7.601,24.143,23.437,18.461,35.298c-3.161,6.594-10.13,10.825-19.122,11.608
	c-2.046,0.179-3.847,1.426-4.735,3.277c-0.888,1.853-0.731,4.037,0.411,5.744c5.022,7.501,6.092,15.585,2.934,22.178
	c-3.521,7.35-11.769,11.737-22.06,11.737c-5.665,0-11.549-1.385-17.018-4.007c-15.863-7.602-24.144-23.437-18.464-35.29
	c0.515-1.073,1.141-2.096,1.858-3.044c1.052-1.391,1.423-3.182,1.012-4.876c-0.411-1.695-1.563-3.115-3.135-3.868l-145.207-69.578
	c-0.794-0.38-1.652-0.571-2.511-0.571c-0.859,0-1.717,0.191-2.511,0.571l-145.21,69.578c-1.572,0.753-2.724,2.173-3.135,3.868
	c-0.411,1.694-0.04,3.485,1.012,4.876c0.718,0.948,1.343,1.972,1.855,3.035c5.683,11.863-2.598,27.698-18.463,35.299
	c-5.467,2.621-11.352,4.007-17.015,4.007c-10.292,0-18.539-4.387-22.06-11.735c-3.157-6.596-2.088-14.681,2.934-22.18
	c1.143-1.707,1.3-3.892,0.413-5.744c-0.888-1.852-2.688-3.098-4.735-3.277c-8.994-0.784-15.962-5.014-19.121-11.608
	c-2.638-5.503-2.329-12.115,0.87-18.614c3.429-6.967,9.676-12.892,17.588-16.683c5.471-2.622,11.355-4.005,17.019-4.005
	c10.292,0,18.54,4.387,22.056,11.728c0.514,1.076,0.919,2.203,1.206,3.351c0.423,1.693,1.585,3.106,3.164,3.847
	c1.579,0.744,3.408,0.736,4.983-0.019l117.608-56.353c2.016-0.966,3.299-3.004,3.299-5.239s-1.283-4.274-3.299-5.24L96.85,302.255
	c-1.573-0.751-3.4-0.759-4.979-0.02c-1.578,0.741-2.74,2.152-3.166,3.843c-0.293,1.168-0.7,2.296-1.204,3.351
	c-3.521,7.349-11.768,11.736-22.06,11.736c-5.664,0-11.548-1.384-17.018-4.004c-7.914-3.794-14.161-9.719-17.592-16.685
	c-3.199-6.499-3.508-13.109-0.87-18.613c3.161-6.594,10.13-10.825,19.124-11.611c2.046-0.179,3.847-1.426,4.734-3.278
	c0.888-1.853,0.731-4.037-0.413-5.743c-5.023-7.501-6.095-15.584-2.938-22.175c3.521-7.349,11.766-11.736,22.057-11.736
	c5.665,0,11.55,1.385,17.021,4.008c7.913,3.79,14.161,9.714,17.592,16.682c3.199,6.498,3.509,13.107,0.869,18.615
	c-0.501,1.048-1.126,2.071-1.856,3.039c-1.049,1.391-1.42,3.18-1.007,4.873c0.413,1.693,1.563,3.113,3.134,3.865l145.209,69.575
	c1.587,0.76,3.434,0.76,5.021,0l145.209-69.575c1.573-0.753,2.724-2.173,3.135-3.868c0.411-1.694,0.04-3.485-1.012-4.876
	c-0.725-0.957-1.348-1.978-1.855-3.039c-2.638-5.503-2.329-12.113,0.87-18.612c3.429-6.966,9.676-12.891,17.592-16.682
	c5.471-2.621,11.356-4.007,17.021-4.007c10.29,0,18.535,4.387,22.056,11.736c3.158,6.589,2.088,14.67-2.936,22.173
	c-1.143,1.707-1.3,3.89-0.413,5.743c0.888,1.853,2.688,3.099,4.734,3.278c8.995,0.786,15.965,5.016,19.123,11.611
	c2.639,5.504,2.33,12.115-0.869,18.613c-3.429,6.966-9.677,12.892-17.592,16.685c-5.47,2.62-11.354,4.004-17.018,4.004
	c-10.292,0-18.537-4.387-22.06-11.741c-0.507-1.054-0.912-2.18-1.205-3.345c-0.425-1.691-1.588-3.101-3.166-3.843
	c-1.58-0.741-3.407-0.733-4.979,0.021l-117.607,56.353c-2.016,0.966-3.299,3.004-3.299,5.24S295.524,368.123,297.54,369.088z"/>
<path d="M208.371,191.35c20.663,0,37.474-16.811,37.474-37.475s-16.811-37.475-37.474-37.475c-20.664,0-37.475,16.811-37.475,37.475
	S187.707,191.35,208.371,191.35z M208.371,128.021c14.255,0,25.853,11.598,25.853,25.855c0,14.255-11.598,25.855-25.853,25.855
	c-14.256,0-25.855-11.599-25.855-25.855C182.516,139.619,194.115,128.021,208.371,128.021z"/>
<path d="M303.629,191.35c20.662,0,37.471-16.811,37.471-37.475s-16.81-37.475-37.471-37.475c-20.664,0-37.475,16.811-37.475,37.475
	S282.965,191.35,303.629,191.35z M303.629,128.021c14.254,0,25.851,11.598,25.851,25.855c0,14.255-11.597,25.855-25.851,25.855
	c-14.256,0-25.855-11.599-25.855-25.855C277.774,139.619,289.372,128.021,303.629,128.021z"/>
<path d="M155.993,209.268h21.649v38.022c0,12.159,9.541,20.65,23.204,20.65c13.663,0,23.205-8.492,23.205-20.65v-20.628h8.743
	v20.628c0,12.159,9.542,20.65,23.205,20.65c13.662,0,23.204-8.492,23.204-20.65v-20.628h8.742v20.628
	c0,12.159,9.542,20.65,23.206,20.65c13.663,0,23.205-8.492,23.205-20.65v-38.022h21.646c30.77,0,55.802-25.078,55.802-55.903
	c0-44.678-19.238-87.269-52.786-116.854C343.611,22.95,304.579,0,256.017,0c-58.763,0-96.155,30.421-103.048,36.515
	c-33.539,29.58-52.776,72.17-52.776,116.849C100.193,184.19,125.225,209.268,155.993,209.268z M160.66,45.225
	c6.348-5.611,40.782-33.605,95.357-33.605c45.1,0,81.139,21.129,95.321,33.61c31.043,27.377,48.848,66.79,48.848,108.135
	c0,24.418-19.82,44.283-44.182,44.283h-27.456c-3.208,0-5.81,2.601-5.81,5.81v43.832c0,8.379-8.867,9.03-11.585,9.03
	s-11.586-0.652-11.586-9.03v-26.438c0-3.209-2.602-5.81-5.81-5.81h-20.362c-3.208,0-5.81,2.601-5.81,5.81v26.438
	c0,8.379-8.866,9.03-11.584,9.03c-2.718,0-11.585-0.652-11.585-9.03v-26.438c0-3.209-2.602-5.81-5.81-5.81h-20.363
	c-3.208,0-5.81,2.601-5.81,5.81v26.438c0,8.379-8.867,9.03-11.585,9.03c-2.717,0-11.584-0.652-11.584-9.03v-43.832
	c0-3.209-2.602-5.81-5.81-5.81h-27.459c-24.36,0-44.18-19.866-44.18-44.283C111.813,112.019,129.615,72.605,160.66,45.225z"/>
<g>
</g>
<g>
</g>
<g>
</g>
<g>
</g>
<g>
</g>
<g>
</g>
<g>
</g>
<g>
</g>
<g>
</g>
<g>
</g>
<g>
</g>
<g>
</g>
<g>
</g>
<g>
</g>
<g>
</g>
</svg>
